<svg width="1439" height="46" viewBox="0 0 1439 46" fill="none" xmlns="http://www.w3.org/2000/svg">
<path d="M0.5 45L60.5462 15.1263C85.8043 2.56007 115.684 3.51208 140.09 17.6607L157.918 27.9955C176.736 38.9043 199.052 42.0882 220.17 36.8774L357.759 2.92744C378.405 -2.167 400.215 0.758853 418.788 11.1147L439.779 22.8184C464.595 36.6545 494.723 37.0085 519.857 23.7593L543.55 11.2696C563.307 0.854505 586.399 -1.26341 607.721 5.3839L710.187 37.328C726.224 42.3276 743.392 42.404 759.473 37.5474L866.456 5.23728C888.131 -1.30866 911.53 1.17232 931.35 12.1178L948.846 21.7801C974.898 36.1671 1006.62 35.6957 1032.23 20.5409L1045.96 12.4151C1064.83 1.24998 1087.32 -2.09472 1108.62 3.09536L1245.71 36.4942C1267.88 41.8965 1291.3 37.4071 1309.91 24.19V24.19C1334.96 6.39815 1368.06 4.80687 1394.7 20.1149L1438 45" stroke="#B8B8B8" stroke-width="0.6"/>
</svg>
